<?xml version="1.0" encoding="UTF-8" standalone="no"?>
<svg
   version="1.1"
   width="1024"
   height="1024"
   id="svg1"
   sodipodi:docname="favicon.svg"
   inkscape:export-filename="../e270b186/favicon.png"
   inkscape:export-xdpi="96"
   inkscape:export-ydpi="96"
   inkscape:version="1.4.2 (2aeb623e1d, 2025-05-12)"
   xmlns:inkscape="http://www.inkscape.org/namespaces/inkscape"
   xmlns:sodipodi="http://sodipodi.sourceforge.net/DTD/sodipodi-0.dtd"
   xmlns="http://www.w3.org/2000/svg"
   xmlns:svg="http://www.w3.org/2000/svg">
  <defs
     id="defs1" />
  <svg
     width="1024"
     height="1024"
     viewBox="0 0 1024 1024"
     version="1.1"
     id="SvgjsSvg1072"
     inkscape:version="1.4.1 (1:1.4.1+202503302257+93de688d07)"
     sodipodi:docname="logo-plain.svg"
     inkscape:export-filename="logo-plain-1024x1024.png"
     inkscape:export-xdpi="95.999977"
     inkscape:export-ydpi="95.999977">
    <sodipodi:namedview
       id="SvgjsSodipodi:namedview1071"
       pagecolor="#ffffff"
       bordercolor="#000000"
       borderopacity="0.25"
       inkscape:showpageshadow="2"
       inkscape:pageopacity="0.0"
       inkscape:pagecheckerboard="0"
       inkscape:deskcolor="#d1d1d1"
       inkscape:document-units="mm"
       showgrid="true"
       inkscape:zoom="0.28020631"
       inkscape:cx="392.56789"
       inkscape:cy="844.02096"
       inkscape:window-width="1366"
       inkscape:window-height="731"
       inkscape:window-x="0"
       inkscape:window-y="768"
       inkscape:window-maximized="1"
       inkscape:current-layer="svg1" />
    <defs
       id="SvgjsDefs1070" />
    <g
       inkscape:label="Layer 1"
       inkscape:groupmode="layer"
       id="SvgjsG1069"
       transform="translate(-5,-4.9999995)">
      <path
         id="SvgjsPath1068"
         style="fill:#2b7fff;stroke:none;stroke-width:73.1427;stroke-linejoin:round"
         d="m 78.14193,4.9999935 c -40.52107,0 -73.14204,32.6209705 -73.14204,73.1420525 V 224.42992 c 0,40.52108 32.62097,73.14205 73.14204,73.14205 h 36.57292 v 73.14204 H 78.14193 c -40.52107,0 -73.14204,32.62098 -73.14204,73.14206 v 146.28409 c 0,40.52107 32.62097,73.14582 73.14204,73.14582 h 36.57292 v 73.14207 H 78.14193 c -40.52107,0 -73.14204,32.62093 -73.14204,73.142 v 146.28416 c 0,40.5211 32.62097,73.14579 73.14204,73.14579 h 146.28788 c 40.52107,0 73.14205,-32.62469 73.14205,-73.14579 V 809.57005 c 0,-40.52107 -32.62098,-73.142 -73.14205,-73.142 h -36.57292 v -73.14207 h 36.57292 c 40.52107,0 73.14205,-32.62475 73.14205,-73.14582 V 443.85607 c 0,-40.52108 -32.62098,-73.14206 -73.14205,-73.14206 h -36.57292 v -73.14204 h 36.57292 c 6.56415,0 12.91857,-0.85739 18.96304,-2.4644 L 373.1783,424.88925 v 0.004 c -1.6064,6.0434 -2.46439,12.40016 -2.46439,18.96304 v 146.28407 c 0,40.52107 32.62097,73.14582 73.14204,73.14582 h 146.2841 c 40.52107,0 73.14582,-32.62475 73.14582,-73.14582 V 443.85607 c 0,-6.56415 -0.85738,-12.92236 -2.4644,-18.96682 L 790.60315,295.10757 h 0.004 c 6.04342,1.6064 12.40018,2.4644 18.96299,2.4644 h 36.57297 v 73.14204 h -36.57297 c -40.52107,0 -73.142,32.62098 -73.142,73.14206 v 146.28409 c 0,40.52107 32.62093,73.14582 73.142,73.14582 h 36.57297 v 73.14207 h -36.57297 c -40.52107,0 -73.142,32.62093 -73.142,73.142 v 146.28416 c 0,40.5211 32.62093,73.14579 73.142,73.14579 h 146.28417 c 40.5211,0 73.14579,-32.62469 73.14579,-73.14579 V 809.57005 c 0,-40.52107 -32.62469,-73.142 -73.14579,-73.142 h -36.5694 v -73.14207 h 36.5692 c 40.5211,0 73.14579,-32.62475 73.14579,-73.14582 V 443.85607 c 0,-40.52108 -32.62469,-73.14206 -73.14579,-73.14206 h -36.5692 v -73.14204 h 36.5692 c 40.5211,0 73.14579,-32.62097 73.14579,-73.14205 V 78.142046 c 0,-40.521082 -32.62469,-73.1420525 -73.14579,-73.1420525 H 809.56994 c -40.52107,0 -73.142,32.6209705 -73.142,73.1420525 V 224.42992 c 0,6.56415 0.85357,12.91858 2.46059,18.96303 L 609.10686,373.17842 c -10e-4,-3.1e-4 -0.003,3.1e-4 -0.004,0 -6.0434,-1.6064 -12.40017,-2.46441 -18.96303,-2.46441 H 443.85595 c -6.56286,0 -12.91963,0.85801 -18.96303,2.46441 -10e-4,3.1e-4 -0.003,-3.1e-4 -0.004,0 L 295.10746,243.39295 c 1.60701,-6.04446 2.4644,-12.39888 2.4644,-18.96303 V 78.142046 c 0,-40.521082 -32.62098,-73.1420525 -73.14205,-73.1420525 z" />
    </g>
  </svg>
  <style
     id="style1">@media (prefers-color-scheme: light) { :root { filter: none; } }
@media (prefers-color-scheme: dark) { :root { filter: none; } }
</style>
</svg>
