<?xml version="1.0" encoding="UTF-8" standalone="no"?>
<!-- Created with Inkscape (http://www.inkscape.org/) -->

<svg
   width="831.28601mm"
   height="140mm"
   viewBox="0 0 831.28601 140"
   version="1.1"
   id="svg1"
   inkscape:version="1.4 (1:1.4+202410161351+e7c3feb100)"
   sodipodi:docname="logo with name.svg"
   inkscape:export-filename="logo-plain.svg"
   inkscape:export-xdpi="96"
   inkscape:export-ydpi="96"
   xmlns:inkscape="http://www.inkscape.org/namespaces/inkscape"
   xmlns:sodipodi="http://sodipodi.sourceforge.net/DTD/sodipodi-0.dtd"
   xmlns="http://www.w3.org/2000/svg"
   xmlns:svg="http://www.w3.org/2000/svg">
  <sodipodi:namedview
     id="namedview1"
     pagecolor="#18181b"
     bordercolor="#000000"
     borderopacity="0.25"
     inkscape:showpageshadow="2"
     inkscape:pageopacity="0.0"
     inkscape:pagecheckerboard="0"
     inkscape:deskcolor="#d1d1d1"
     inkscape:document-units="mm"
     showgrid="true"
     inkscape:zoom="0.10017658"
     inkscape:cx="3014.6767"
     inkscape:cy="653.84544"
     inkscape:window-width="1247"
     inkscape:window-height="795"
     inkscape:window-x="0"
     inkscape:window-y="0"
     inkscape:window-maximized="0"
     inkscape:current-layer="layer1">
    <inkscape:grid
       type="modular"
       id="grid1"
       units="mm"
       originx="-5"
       originy="-4.9999995"
       spacingx="39.999999"
       spacingy="39.999999"
       empcolor="#0047cb"
       empopacity="0.30196078"
       color="#0099e5"
       opacity="0.14901961"
       empspacing="0"
       marginx="0"
       marginy="0"
       gapx="9.9999998"
       gapy="10"
       enabled="true"
       visible="true" />
  </sodipodi:namedview>
  <defs
     id="defs1" />
  <g
     inkscape:label="Layer 1"
     inkscape:groupmode="layer"
     id="layer1"
     transform="translate(-5,-4.9999995)">
    <rect
       style="fill:#2b7fff;stroke:none;stroke-width:10;stroke-linejoin:round"
       id="rect1"
       width="40"
       height="40"
       x="5"
       y="4.9999995"
       rx="10"
       ry="10" />
    <rect
       style="fill:#2b7fff;stroke:none;stroke-width:10;stroke-linejoin:round"
       id="rect2"
       width="40"
       height="40"
       x="5"
       y="55"
       rx="10"
       ry="10" />
    <rect
       style="fill:#2b7fff;stroke:none;stroke-width:10;stroke-linejoin:round"
       id="rect3"
       width="40"
       height="40"
       x="5"
       y="105"
       rx="10"
       ry="10" />
    <rect
       style="fill:#2b7fff;stroke:none;stroke-width:10;stroke-linejoin:round"
       id="rect4"
       width="40"
       height="40"
       x="55"
       y="55"
       rx="10"
       ry="10" />
    <rect
       style="fill:#2b7fff;stroke:none;stroke-width:10;stroke-linejoin:round"
       id="rect5"
       width="40"
       height="40"
       x="105"
       y="5"
       rx="10"
       ry="10" />
    <rect
       style="fill:#2b7fff;stroke:none;stroke-width:10;stroke-linejoin:round"
       id="rect6"
       width="40"
       height="40"
       x="105"
       y="55"
       rx="10"
       ry="10" />
    <rect
       style="fill:#2b7fff;stroke:none;stroke-width:10;stroke-linejoin:round"
       id="rect7"
       width="40"
       height="40"
       x="105"
       y="105"
       rx="10"
       ry="10" />
    <path
       style="fill:none;stroke:#2b7fff;stroke-width:10;stroke-linejoin:round;stroke-opacity:1"
       d="M 25,125 V 24.999999 L 75,75 125,25 v 100"
       id="path7" />
    <path
       d="m 207.77402,128.4371 q -2.77405,0 -2.77405,-2.92006 V 22.584924 q 0,-2.482051 2.33604,-2.482051 h 24.67451 q 1.46003,0 2.04404,0.438009 0.73002,0.292006 1.02203,1.606033 l 25.69652,68.913419 q 0.43801,1.168024 1.02203,1.168024 0.58401,-0.146003 1.02202,-1.314027 L 287.78367,22.87693 q 0.87602,-2.774057 2.92006,-2.774057 h 25.55053 q 2.04404,0 2.04404,2.336048 V 125.37104 q 0,3.06606 -3.21207,3.06606 h -15.62232 q -1.46003,0 -2.19004,-0.58401 -0.58402,-0.73001 -0.58402,-2.04404 V 49.449477 q 0,-0.876018 -0.43801,-0.730015 -0.438,0 -0.73001,0.876018 l -27.74057,76.65158 q -0.73002,2.19004 -2.92006,2.19004 h -10.36621 q -2.48206,0 -3.21207,-2.19004 L 223.83435,50.471498 q -0.292,-1.022021 -0.73001,-0.876018 -0.43801,0 -0.43801,1.022021 v 75.483559 q 0,1.31402 -0.43801,1.89803 -0.43801,0.43801 -2.04404,0.43801 h -12.41026 z m 165.71341,1.46003 q -11.38823,0 -20.00241,-5.1101 -8.61418,-5.11011 -13.57828,-14.01629 -4.8181,-9.05219 -4.8181,-20.586424 0,-12.11825 4.96411,-21.170436 5.1101,-9.19819 13.72428,-14.308295 8.76018,-5.110105 19.85641,-5.110105 11.53423,0 20.14841,5.256108 8.61418,5.110105 13.43228,14.308295 4.8181,9.052186 4.8181,20.87843 0,11.680237 -4.96411,20.732427 -4.81809,8.90618 -13.43227,14.01629 -8.61418,5.1101 -20.14842,5.1101 z m 0.14601,-12.99426 q 6.27813,0 10.51221,-3.06607 4.23409,-3.21206 6.42414,-9.19819 2.19004,-6.132123 2.19004,-14.892303 0,-8.906184 -2.33605,-15.03831 -2.19004,-6.132126 -6.42413,-9.344192 -4.23409,-3.212066 -10.36621,-3.212066 -5.98613,0 -10.36622,3.212066 -4.38009,3.212066 -6.71614,9.344192 -2.19004,6.132126 -2.19004,15.03831 0,8.76018 2.19004,14.892303 2.33605,5.98613 6.71614,9.19819 4.38009,3.06607 10.36622,3.06607 z m 107.02035,11.53423 q -1.16803,0 -2.04404,-0.58401 -0.73002,-0.58401 -0.73002,-2.04404 v -4.8181 q 0,-1.02202 -0.58401,-1.16802 -0.58401,-0.14601 -1.31403,0.58401 -2.19004,2.04404 -5.1101,4.23409 -2.92006,2.19004 -7.15415,3.79607 -4.08809,1.46003 -9.7822,1.46003 -8.90619,0 -15.91433,-4.38009 -7.00814,-4.38009 -11.09623,-13.14027 -4.08808,-8.76018 -4.08808,-21.900448 0,-12.264253 4.23408,-21.462442 4.38009,-9.19819 11.82625,-14.308295 7.44615,-5.110105 16.64434,-5.110105 6.42413,0 10.95023,2.044042 4.67209,2.044042 8.61417,5.694117 1.31403,0.876018 1.89804,0.730015 0.58401,-0.292006 0.58401,-1.898039 V 22.438921 q 0,-2.336048 2.04405,-2.336048 h 14.7463 q 2.19004,0 2.19004,2.482051 V 125.66305 q 0,1.46003 -0.73001,2.19004 -0.58401,0.58401 -2.33605,0.58401 h -12.84826 z m -3.06607,-58.255196 q -3.79607,-3.796078 -7.59215,-5.84012 -3.65008,-2.190045 -8.46818,-2.190045 -5.54811,0 -10.0742,3.066063 -4.38009,2.92006 -6.86215,9.198189 -2.48205,6.132126 -2.48205,15.768325 0,9.782201 2.48205,15.914324 2.48206,5.98613 6.71614,8.76018 4.38009,2.77406 9.7822,2.77406 4.6721,0 8.32218,-2.19004 3.79607,-2.19005 5.98612,-5.54812 2.19004,-3.35807 2.19004,-6.71614 V 70.181904 Z m 67.3075,45.844946 q 5.11011,0 9.6362,-2.77406 4.6721,-2.77406 8.90619,-7.30015 V 53.97557 q 0,-2.92006 3.35806,-2.92006 h 13.14028 q 2.62805,0 2.62805,2.774057 l -0.29201,72.271493 q 0,2.33604 -2.04404,2.33604 h -14.30829 q -2.04405,0 -2.04405,-2.19004 v -7.73816 q 0,-0.73002 -0.438,-0.87602 -0.29201,-0.29201 -1.02203,0.43801 -6.86214,6.42413 -12.99426,9.19819 -6.13213,2.62805 -12.70226,2.62805 -6.57014,0 -11.68024,-2.77405 -5.11011,-2.77406 -8.03017,-8.03017 -2.92006,-5.25611 -2.92006,-12.26425 V 54.121573 q 0,-3.066063 3.06606,-3.066063 h 13.43228 q 2.48205,0 2.48205,2.774057 v 49.787023 q 0,5.54812 3.06606,9.05219 3.21207,3.35807 8.76018,3.35807 z m 74.89945,9.19819 q 0,1.75203 -0.73002,2.48205 -0.73001,0.73001 -2.62805,0.73001 h -12.84826 q -2.92006,0 -2.92006,-2.62805 l 0.438,-103.224126 q 0,-2.482051 2.19005,-2.482051 h 14.4543 q 2.04404,0 2.04404,2.336048 z m 34.3107,-29.49261 q 0,5.98612 2.77406,10.80422 2.77405,4.6721 7.59215,7.44616 4.9641,2.62805 10.80422,2.62805 5.98613,0 10.80423,-2.48205 4.9641,-2.48205 9.34419,-8.03017 0.58401,-0.73001 1.02202,-0.73001 0.43801,-0.146 1.46003,0.43801 l 8.90618,3.94208 q 1.89804,0.87602 0.43801,2.62805 -4.38009,6.42413 -9.49019,10.36622 -4.9641,3.79607 -11.09623,5.54811 -5.98612,1.60603 -13.57828,1.60603 -11.09623,0 -19.85641,-4.9641 -8.76018,-4.9641 -13.87028,-13.72428 -4.96411,-8.90618 -4.96411,-20.440422 0,-12.702262 5.11011,-21.900451 5.25611,-9.19819 14.01629,-14.162292 8.76018,-5.110105 19.27239,-5.110105 11.09623,0 19.2724,4.818099 8.32217,4.818099 12.99427,13.870286 4.67209,8.906183 4.67209,21.754448 0,1.46003 -0.292,2.336048 -0.146,0.876018 -2.04404,1.022021 H 655.7114 q -0.87602,0 -1.31402,0.584012 -0.29201,0.584012 -0.29201,1.752036 z m 34.60271,-13.140271 q 1.46003,0 1.89804,-0.292006 0.58401,-0.438009 0.58401,-1.752036 0,-4.526093 -2.04404,-8.906183 -2.04404,-4.38009 -5.98612,-7.154147 -3.94208,-2.92006 -9.6362,-2.92006 -5.84012,0 -10.22021,2.92006 -4.38009,2.774057 -6.71614,7.592156 -2.19004,4.672096 -2.19004,10.512216 z m 50.66301,13.140271 q 0,5.98612 2.77405,10.80422 2.77406,4.6721 7.59216,7.44616 4.9641,2.62805 10.80422,2.62805 5.98612,0 10.80422,-2.48205 4.96411,-2.48205 9.3442,-8.03017 0.58401,-0.73001 1.02202,-0.73001 0.43801,-0.146 1.46003,0.43801 l 8.90618,3.94208 q 1.89804,0.87602 0.43801,2.62805 -4.38009,6.42413 -9.4902,10.36622 -4.9641,3.79607 -11.09622,5.54811 -5.98613,1.60603 -13.57828,1.60603 -11.09623,0 -19.85641,-4.9641 -8.76018,-4.9641 -13.87029,-13.72428 -4.9641,-8.90618 -4.9641,-20.440422 0,-12.702262 5.1101,-21.900451 5.25611,-9.19819 14.01629,-14.162292 8.76018,-5.110105 19.2724,-5.110105 11.09623,0 19.2724,4.818099 8.32217,4.818099 12.99426,13.870286 4.6721,8.906183 4.6721,21.754448 0,1.46003 -0.29201,2.336048 -0.146,0.876018 -2.04404,1.022021 h -51.68506 q -0.87602,0 -1.31403,0.584012 -0.292,0.584012 -0.292,1.752036 z M 773.9738,82.592159 q 1.46003,0 1.89804,-0.292006 0.58401,-0.438009 0.58401,-1.752036 0,-4.526093 -2.04404,-8.906183 -2.04405,-4.38009 -5.98613,-7.154147 -3.94208,-2.92006 -9.63619,-2.92006 -5.84012,0 -10.22022,2.92006 -4.38009,2.774057 -6.71613,7.592156 -2.19005,4.672096 -2.19005,10.512216 z"
       id="text2"
       style="font-size:146.003px;font-family:'Libre Franklin';-inkscape-font-specification:'Libre Franklin, @wght=600';font-variation-settings:'wght' 600;fill:#ffffff;stroke-width:459.851;stroke-linejoin:round"
       aria-label="Modulee" />
    <text
       xml:space="preserve"
       style="font-style:normal;font-variant:normal;font-weight:normal;font-stretch:normal;font-size:146.003px;font-family:'Libre Franklin';-inkscape-font-specification:'Libre Franklin, @wght=600';font-variant-ligatures:normal;font-variant-caps:normal;font-variant-numeric:normal;font-variant-east-asian:normal;font-variation-settings:'wght' 600;text-align:start;writing-mode:lr-tb;direction:ltr;text-anchor:start;fill:#ffffff;fill-opacity:1;stroke:none;stroke-width:459.851;stroke-linejoin:round"
       x="893.46576"
       y="128.4371"
       id="text2-7"><tspan
         sodipodi:role="line"
         id="tspan2-6"
         style="font-style:normal;font-variant:normal;font-weight:normal;font-stretch:normal;font-size:146.003px;font-family:'Libre Franklin';-inkscape-font-specification:'Libre Franklin, @wght=600';font-variant-ligatures:normal;font-variant-caps:normal;font-variant-numeric:normal;font-variant-east-asian:normal;font-variation-settings:'wght' 600;fill:#ffffff;fill-opacity:1;stroke:none;stroke-width:459.851"
         x="893.46576"
         y="128.4371">Modulee</tspan></text>
  </g>
</svg>
